<?xml version="1.0" encoding="UTF-8"?><svg id="a" xmlns="http://www.w3.org/2000/svg" viewBox="0 0 100 424"><rect x="54.5" y="13.8" width="45.5" height="3" fill="#db0f05"/><rect x="54.5" y="27.7" width="45.5" height="3" fill="#db0f05"/><rect x="54.5" y="41.5" width="45.5" height="3" fill="#db0f05"/><rect x="54.5" y="55.3" width="45.5" height="3" fill="#db0f05"/><rect x="37.1" width="62.9" height="3" fill="#db0f05"/><rect x="54.5" y="84.3" width="45.5" height="3" fill="#d3cfcf"/><rect x="54.5" y="98.1" width="45.5" height="3" fill="#d3cfcf"/><rect x="54.5" y="111.9" width="45.5" height="3" fill="#d3cfcf"/><rect x="54.5" y="125.8" width="45.5" height="3" fill="#d3cfcf"/><rect x="37.1" y="70.5" width="62.9" height="3" fill="#d3cfcf"/><rect x="54.5" y="154.8" width="45.5" height="3" fill="#db0f05"/><rect x="54.5" y="168.6" width="45.5" height="3" fill="#db0f05"/><rect x="54.5" y="182.4" width="45.5" height="3" fill="#db0f05"/><rect x="54.5" y="196.2" width="45.5" height="3" fill="#db0f05"/><rect x="37.1" y="140.9" width="62.9" height="3" fill="#db0f05"/><rect x="54.5" y="225.2" width="45.5" height="3" fill="#db0f05"/><rect x="54.5" y="239.1" width="45.5" height="3" fill="#db0f05"/><rect x="54.5" y="252.9" width="45.5" height="3" fill="#db0f05"/><rect x="54.5" y="266.7" width="45.5" height="3" fill="#db0f05"/><rect x="37.1" y="211.4" width="62.9" height="3" fill="#db0f05"/><rect x="54.5" y="295.7" width="45.5" height="3" fill="#db0f05"/><rect x="54.5" y="309.5" width="45.5" height="3" fill="#db0f05"/><rect x="54.5" y="323.4" width="45.5" height="3" fill="#db0f05"/><rect x="54.5" y="337.2" width="45.5" height="3" fill="#db0f05"/><rect x="37.1" y="281.9" width="62.9" height="3" fill="#db0f05"/><rect x="54.5" y="366.2" width="45.5" height="3" fill="#db0f05"/><rect x="54.5" y="380" width="45.5" height="3" fill="#db0f05"/><rect x="54.5" y="393.8" width="45.5" height="3" fill="#db0f05"/><rect x="54.5" y="407.7" width="45.5" height="3" fill="#db0f05"/><rect x="37.1" y="352.3" width="62.9" height="3" fill="#db0f05"/></svg>